<?xml version="1.0" encoding="UTF-8" standalone="no"?>
<svg
   viewBox="-40 0 512 512"
   version="1.1"
   id="svg4"
   sodipodi:docname="tecnologias-html.svg"
   width="512"
   height="512"
   inkscape:version="1.3 (0e150ed6c4, 2023-07-21)"
   xmlns:inkscape="http://www.inkscape.org/namespaces/inkscape"
   xmlns:sodipodi="http://sodipodi.sourceforge.net/DTD/sodipodi-0.dtd"
   xmlns="http://www.w3.org/2000/svg"
   xmlns:svg="http://www.w3.org/2000/svg">
  <defs
     id="defs4" />
  <sodipodi:namedview
     id="namedview4"
     pagecolor="#ffffff"
     bordercolor="#000000"
     borderopacity="0.25"
     inkscape:showpageshadow="2"
     inkscape:pageopacity="0.0"
     inkscape:pagecheckerboard="0"
     inkscape:deskcolor="#d1d1d1"
     inkscape:zoom="1.5634615"
     inkscape:cx="191.24231"
     inkscape:cy="256.16236"
     inkscape:window-width="2560"
     inkscape:window-height="1009"
     inkscape:window-x="-8"
     inkscape:window-y="-8"
     inkscape:window-maximized="1"
     inkscape:current-layer="svg4" />
  <g
     id="g4"
     transform="translate(-9.5)">
    <path
       fill="#e34f26"
       d="M 41,460 0,0 h 451 l -41,460 -185,52"
       id="path1" />
    <path
       fill="#ef652a"
       d="M 226,472 375,431 410,37 H 226"
       id="path2" />
    <path
       fill="#ecedee"
       d="m 226,208 h -75 l -5,-58 h 80 V 94 H 84 l 15,171 h 127 z m 0,147 -64,-17 -4,-45 h -56 l 7,89 117,32 z"
       id="path3" />
    <path
       fill="#ffffff"
       d="m 226,265 h 69 l -7,73 -62,17 v 59 L 341,382 357,208 H 226 Z m 0,-171 v 56 h 136 l 5,-56 z"
       id="path4" />
  </g>
</svg>
