<?xml version="1.0" encoding="UTF-8" standalone="no"?>
<svg
   viewBox="0 0 666.66669 666.66669"
   height="666.66669"
   width="666.66669"
   xml:space="preserve"
   id="svg2"
   version="1.1"
   sodipodi:docname="404.svg"
   inkscape:version="1.3.2 (091e20e, 2023-11-25, custom)"
   xmlns:inkscape="http://www.inkscape.org/namespaces/inkscape"
   xmlns:sodipodi="http://sodipodi.sourceforge.net/DTD/sodipodi-0.dtd"
   xmlns="http://www.w3.org/2000/svg"
   xmlns:svg="http://www.w3.org/2000/svg"
   xmlns:rdf="http://www.w3.org/1999/02/22-rdf-syntax-ns#"
   xmlns:cc="http://creativecommons.org/ns#"
   xmlns:dc="http://purl.org/dc/elements/1.1/"><sodipodi:namedview
     id="namedview1"
     pagecolor="#616161"
     bordercolor="#000000"
     borderopacity="0.25"
     inkscape:showpageshadow="false"
     inkscape:pageopacity="0.0"
     inkscape:pagecheckerboard="0"
     inkscape:deskcolor="#909090"
     inkscape:zoom="0.63745674"
     inkscape:cx="271.39096"
     inkscape:cy="231.38825"
     inkscape:window-width="1536"
     inkscape:window-height="793"
     inkscape:window-x="239"
     inkscape:window-y="1072"
     inkscape:window-maximized="1"
     inkscape:current-layer="svg2"
     showborder="false"
     borderlayer="false" /><metadata
     id="metadata8"><rdf:RDF><cc:Work
         rdf:about=""><dc:format>image/svg+xml</dc:format><dc:type
           rdf:resource="http://purl.org/dc/dcmitype/StillImage" /></cc:Work></rdf:RDF></metadata><defs
     id="defs6" /><g
     transform="matrix(0.13333333,0,0,-0.13333333,0,666.66667)"
     id="g12"><path
       id="path16"
       style="fill:#f8f8f8;fill-opacity:1;fill-rule:nonzero;stroke:#222120;stroke-opacity:1;stroke-width:7.50000019;stroke-dasharray:none;paint-order:markers stroke fill"
       d="m 377.121,3584.15 c -36.73,-5.79 -61.82,-40.25 -56.039,-76.98 L 598.816,1742.55 c 5.782,-36.74 40.247,-61.82 76.977,-56.04 l 1285.147,202.27 c 36.73,5.78 61.82,40.24 56.04,76.97 l -231.99,1473.94 -426.84,298.86 -981.029,-154.4" /><path
       id="path18"
       style="fill:#d8d7d5;fill-opacity:1;fill-rule:nonzero;stroke:#222120;stroke-width:7.50000019;stroke-dasharray:none;stroke-opacity:1;paint-order:markers stroke fill"
       d="m 1457.86,3388.2 327.13,51.49 -426.84,298.86 49.38,-313.71 c 3.78,-24.02 26.31,-40.42 50.33,-36.64" /><path
       id="path20"
       style="fill:#232221;fill-opacity:1;fill-rule:nonzero;stroke:none"
       d="m 1356.8,3738.34 49.37,-313.71 c 3.53,-22.38 22.83,-38.34 44.79,-38.34 2.35,0 4.72,0.18 7.11,0.56 l 327.14,51.48 1.14,1.57 -1.57,1.14 -327.13,-51.49 c -2.25,-0.35 -4.49,-0.52 -6.69,-0.52 -20.63,0 -38.77,15 -42.08,36.02 l -49.37,313.71 -1.57,1.14 -1.14,-1.56" /><path
       id="path22"
       style="fill:#d8d7d5;fill-opacity:1;fill-rule:nonzero;stroke:none"
       d="m 1116.85,2320.83 -23.57,149.73 154.3,24.29 23.57,-149.73 z m -30.16,221.32 c -7.07,44.95 -9.34,81.7 -6.8,110.21 2.54,28.51 11.91,55.75 28.13,81.73 9.28,15.52 20.36,29.36 33.29,41.55 12.91,12.17 24.59,24.75 35.06,37.73 10.44,12.95 18.77,26.97 25.01,42 6.22,15.04 7.6,33.6 4.12,55.71 -5.87,37.32 -20.27,61.81 -43.19,73.44 -22.91,11.62 -48.47,15.21 -76.66,10.77 -40.4,-6.36 -66.44,-21.99 -78.13,-46.85 -11.711,-24.89 -16.469,-56.68 -14.278,-95.37 l -147.441,-23.21 c -5.875,37.33 -5.125,72.2 2.273,104.61 7.387,32.39 20.649,61.03 39.774,85.91 19.113,24.86 43.586,45.51 73.422,61.92 29.804,16.41 63.77,27.61 101.88,33.61 82.3,12.95 149.89,6.4 202.8,-19.62 52.9,-26.04 85.29,-76.77 97.17,-152.21 3.84,-24.39 4.71,-46.11 2.64,-65.18 -2.08,-19.06 -6.91,-36.81 -14.46,-53.22 -7.57,-16.42 -17.58,-32.25 -30.01,-47.48 -12.45,-15.25 -26.72,-31.15 -42.85,-47.74 -14.73,-15.61 -26.36,-29.74 -34.91,-42.39 -8.55,-12.68 -14.55,-25.54 -17.95,-38.55 -3.41,-13.04 -4.83,-26.35 -4.26,-39.91 0.57,-13.59 2.19,-28.76 4.83,-45.51 l -139.46,-21.95" /><path
       id="path24"
       style="fill:#328acd;fill-opacity:1;fill-rule:nonzero;stroke:none"
       d="m 1841.65,2453.63 c 170.12,-167.22 367.98,-392.85 551.84,-684.38 127.91,-202.81 222.73,-395.79 293.5,-565.6 -163.06,-73.38 -326.11,-146.75 -489.17,-220.13 l -419.2,1426.56 63.03,43.55" /><path
       id="path26"
       style="fill:#328acd;fill-opacity:1;fill-rule:nonzero;stroke:none"
       d="m 1532.65,2568.99 313.61,-98.02 c 85.93,-136.28 135.55,-257 164.68,-340.95 135.69,-391.01 92.17,-748.83 79.87,-849.94 0,0 -0.21,-1.73 -39.74,-296.56 H 617.184 c -4.746,106.86 -3.832,254.66 21.402,428.03 29.922,205.57 57.699,396.42 182.062,606.02 50.571,85.23 226.522,357.96 563.922,500.73 60.17,25.46 112.2,41.17 148.08,50.69" /><path
       id="path28"
       style="display:none;fill:#f25d26;fill-opacity:1;fill-rule:nonzero;stroke:none"
       d="m 794.977,1972 c 174.558,-56 396.843,-110.96 658.083,-137.73 243.34,-24.94 457.86,-19 631.72,-2.68 4.98,-41.01 9.97,-82.02 14.95,-123.03 -185.67,-15.15 -406.49,-19.72 -653.55,1.89 -276.77,24.2 -516.543,75.13 -711.313,129.83 20.039,43.91 40.074,87.81 60.11,131.72" /><path
       id="path30"
       style="fill:#2e7ebc;fill-opacity:1;fill-rule:nonzero;stroke:none"
       d="m 2105.45,1621.68 c -3.31,76.9 -11.53,162.3 -27.9,252.87 l 45.17,148.5 c 24.45,-6.61 49.41,-11.97 74.81,-16.02 l -92.08,-385.35" /><path
       id="path32"
       style="fill:#2e7ebc;fill-opacity:1;fill-rule:nonzero;stroke:none"
       d="m 1952.95,983.52 h -146.42 l 218.91,719.7 c 25.34,1.57 50.12,3.37 74.29,5.34 -4.98,41.01 -9.97,82.02 -14.95,123.03 -6.89,-0.64 -13.85,-1.27 -20.87,-1.89 l 13.64,44.85 c 16.37,-90.57 24.59,-175.97 27.9,-252.87 l -152.5,-638.16" /><path
       id="path34"
       style="fill:#2e7ebc;fill-opacity:1;fill-rule:nonzero;stroke:none"
       d="m 2025.44,1703.22 38.47,126.48 c 7.02,0.62 13.98,1.25 20.87,1.89 4.98,-41.01 9.97,-82.02 14.95,-123.03 -24.17,-1.97 -48.95,-3.77 -74.29,-5.34" /><path
       id="path36"
       style="fill:#2e7ebc;fill-opacity:1;fill-rule:nonzero;stroke:none"
       d="m 1560.37,1190.84 60.83,18.92 139.42,-72.07 35.16,85.26 -176.94,68.05 -72.23,-33.85 13.76,-66.31" /><path
       id="path38"
       style="fill:#f1d066;fill-opacity:1;fill-rule:nonzero;stroke:none"
       d="m 615.75,1145.36 c -0.27,0.06 -0.543,0.13 -0.812,0.2 l 1.449,20.16 c -0.246,-6.86 -0.457,-13.66 -0.637,-20.36" /><path
       id="path40"
       style="fill:#2e7ebc;fill-opacity:1;fill-rule:nonzero;stroke:none"
       d="m 1366.67,1052.96 c -77.54,0 -159.95,2.91 -246.58,9.83 -192.711,15.39 -362.356,47.1 -504.34,82.57 0.18,6.7 0.391,13.5 0.637,20.36 l 8.371,116.59 c 5.168,-1.75 10.418,-3.51 15.742,-5.29 67.27,-22.43 216.48,-83.54 385.5,-107 352.45,-48.92 548.12,-61.15 548.12,-61.15 l 0.66,15.49 c 0,-21.47 0,-42.94 0,-64.41 -64.59,-4.34 -134.14,-6.99 -208.11,-6.99" /><path
       id="path42"
       style="fill:#f79994;fill-opacity:1;fill-rule:nonzero;stroke:none"
       d="m 1659.29,2343.64 h -0.01 c -88.66,15.2 -148.22,99.41 -133.02,188.07 l 59.23,345.51 321.1,-55.05 -59.23,-345.5 c -15.2,-88.67 -99.41,-148.23 -188.07,-133.03" /><path
       id="path44"
       style="fill:#f35b5f;fill-opacity:1;fill-rule:nonzero;stroke:none"
       d="m 1863.94,2573.38 -190.16,144.01 c -1.06,-18.47 -4.04,-105.31 60.23,-176.92 41.04,-45.72 89.57,-63.03 112.25,-69.5 l 17.68,102.41" /><path
       id="path46"
       style="fill:#f79994;fill-opacity:1;fill-rule:nonzero;stroke:none"
       d="m 1596.46,2985.55 c -0.1,5.39 -12.46,15.68 -16.22,19.12 -6.33,5.81 -13.41,10.81 -21.02,14.82 -14.77,7.78 -31.77,11.97 -48.5,11.1 -33.28,-1.72 -66.35,-23.64 -77.45,-55.62 -6.45,-18.58 -5.5,-39.13 -0.38,-58.12 7.69,-28.56 24.7,-54.4 47.39,-73.36 18.81,-15.72 41.41,-26.71 65.22,-32.36 4.77,-1.14 54.28,-8.64 54.25,-6.69 -1.1,60.37 -2.2,120.74 -3.29,181.11" /><path
       id="path48"
       style="fill:#f79994;fill-opacity:1;fill-rule:nonzero;stroke:none"
       d="m 1551.88,2989.92 c -0.72,-26.43 -1.9,-166.27 103.74,-283.75 19.46,-21.64 148.83,-165.51 296.13,-132.2 189.27,42.81 220.82,335.83 222.33,351.73 5.1,53.76 20.11,212.12 -94.63,318.14 -93.64,86.52 -212.42,81.57 -229.31,80.6 -17.79,-1.03 -131.51,-9.41 -216.87,-104.49 -77.47,-86.3 -80.21,-186.78 -81.39,-230.03" /><path
       id="path50"
       style="fill:#232221;fill-opacity:1;fill-rule:nonzero;stroke:none"
       d="m 2073.96,2943.05 c -1.13,-23.11 13.43,-42.6 32.51,-43.53 19.08,-0.93 35.46,17.05 36.58,40.16 1.13,23.11 -13.43,42.6 -32.51,43.53 -19.08,0.93 -35.46,-17.05 -36.58,-40.16" /><path
       id="path52"
       style="fill:#232221;fill-opacity:1;fill-rule:nonzero;stroke:none"
       d="m 1998.88,2916.18 23.84,-47.67 c 0.6,-1.2 0.86,-2.41 0.87,-3.63 -0.02,-3.24 -1.93,-6.33 -5.18,-7.59 l -31.74,-12.43 c -4.38,-1.72 -6.54,-6.67 -4.83,-11.05 1.72,-4.38 6.67,-6.54 11.05,-4.83 l 31.74,12.44 c 10,3.93 16.02,13.47 16.01,23.46 0,3.78 -0.87,7.66 -2.67,11.26 l -23.84,47.67 c -2.11,4.21 -7.23,5.91 -11.44,3.81 -4.21,-2.11 -5.91,-7.23 -3.81,-11.44" /><path
       id="path54"
       style="fill:#f35b5f;fill-opacity:1;fill-rule:nonzero;stroke:none"
       d="m 1778.68,2858.66 c -1.26,-25.93 18.74,-47.98 44.67,-49.24 25.93,-1.26 47.97,18.74 49.24,44.67 1.26,25.93 -18.74,47.97 -44.67,49.24 -25.93,1.26 -47.98,-18.74 -49.24,-44.67" /><path
       id="path56"
       style="fill:#232221;fill-opacity:1;fill-rule:nonzero;stroke:none"
       d="m 1562.93,2871.57 c 0.47,2.27 1.79,9.21 1.79,18.69 0,15.09 -3.35,37.19 -19.2,57.43 -20.27,25.77 -47.54,31.9 -55.15,33.4 -4.62,0.9 -9.1,-2.12 -9.99,-6.75 -0.9,-4.62 2.12,-9.09 6.74,-9.99 6.08,-1.15 28.76,-6.41 44.98,-27.18 12.77,-16.27 15.56,-34.2 15.57,-46.91 0,-7.94 -1.1,-13.62 -1.44,-15.25 -0.95,-4.61 2.02,-9.12 6.63,-10.07 4.62,-0.95 9.12,2.02 10.07,6.63" /><path
       id="path58"
       style="fill:#232221;fill-opacity:1;fill-rule:nonzero;stroke:none"
       d="m 1543.05,2943.23 c -1.34,0.45 -7.19,2.33 -15.35,2.35 -7.85,0.02 -18.13,-1.87 -27.54,-9.05 -7.86,-5.98 -12.25,-13.46 -14.65,-19.63 -2.4,-6.17 -2.93,-11.25 -3.08,-12.86 -0.42,-4.69 3.04,-8.83 7.73,-9.25 4.69,-0.42 8.83,3.04 9.25,7.73 0.07,0.8 0.41,4.13 1.99,8.19 1.59,4.05 4.29,8.6 9.09,12.27 5.74,4.36 11.9,5.53 17.21,5.55 5.43,0.01 9.67,-1.36 9.85,-1.44 4.45,-1.51 9.3,0.87 10.82,5.32 1.52,4.46 -0.86,9.3 -5.32,10.82" /><path
       id="path60"
       style="fill:#f35b5f;fill-opacity:1;fill-rule:nonzero;stroke:none"
       d="m 2139.7,2870.83 c 8.97,-0.43 17.14,-3.49 24.06,-8.2 -5.25,-24.7 -12.93,-54.43 -24,-85.46 -1.55,-0.08 -3.05,-0.32 -4.63,-0.24 -25.94,1.26 -45.93,23.3 -44.67,49.23 1.26,25.94 23.31,45.94 49.24,44.67" /><path
       id="path62"
       style="fill:#232221;fill-opacity:1;fill-rule:nonzero;stroke:none"
       d="m 1883.15,2987.09 30.78,-34.93 -44.12,-15.54 c -4.44,-1.56 -6.77,-6.43 -5.21,-10.87 1.57,-4.44 6.44,-6.77 10.88,-5.21 l 56.03,19.74 c 2.66,0.93 4.71,3.16 5.42,5.89 0.71,2.73 0.01,5.67 -1.85,7.78 l -39.13,44.41 c -3.12,3.53 -8.51,3.87 -12.04,0.76 -3.53,-3.11 -3.87,-8.5 -0.76,-12.03 v 0" /><path
       id="path64"
       style="fill:#ffffff;fill-opacity:1;fill-rule:nonzero;stroke:none"
       d="m 1872.64,2742.25 140.88,-16.05 c -0.38,2.88 -6.55,44.49 -39.99,59.61 -32.78,14.84 -78.97,-1.58 -100.89,-43.56" /><path
       id="path66"
       style="fill:#232221;fill-opacity:1;fill-rule:nonzero;stroke:none"
       d="m 1553.38,3022.32 c 7.76,-3.02 26.06,-11.33 40.62,-30.9 13.41,-18.04 16.63,-36.21 17.58,-44.52 146.12,13.87 230.47,54.93 281.27,91.91 0,0 3.71,2.7 110.83,84.07 17.26,-18.61 44.29,-43.55 82.55,-64.96 34.68,-19.42 66.8,-29.32 90.31,-34.64 76.79,17.87 130.33,75.24 132.11,135.15 1.87,63.09 -54.21,110.85 -94.01,130.7 -34.3,17.1 -58.82,14.64 -88.34,12.17 -26.39,-2.2 -56.78,-4.4 -101.72,7.37 -76.76,20.11 -73.9,49 -145.87,66.44 -21.75,5.28 -112.12,27.18 -202.93,-20.63 -76.59,-40.33 -137.27,-121.7 -143.31,-215.54 -3.31,-51.36 10.62,-92.78 20.91,-116.62" /><path
       id="path68"
       style="fill:#328acd;fill-opacity:1;fill-rule:nonzero;stroke:none"
       d="m 1532.65,2568.99 c -128.86,-29.38 -369.91,-103.59 -594.451,-304.45 0,0 -226.297,-202.44 -380.636,-577.83 -13.672,-33.26 -28.969,-68.37 -45.86,-142.17 -13.094,-57.21 -18.988,-109.96 -20.914,-156.03 -1.441,-34.44 19.777,-65.77 52.176,-77.53 28.453,-10.33 61.223,-21.85 97.535,-33.96 67.27,-22.43 216.48,-83.54 385.5,-107 352.45,-48.92 548.12,-61.15 548.12,-61.15 l 25.63,608.41 -465.88,58.98 398.78,792.73" /><path
       id="path70"
       style="fill:#232221;fill-opacity:1;fill-rule:nonzero;stroke:none"
       d="m 1904.34,2254.76 c 58.47,-204.48 94.69,-375.65 117.6,-500.47 0.5,-2.72 3.11,-4.51 5.82,-4.02 2.72,0.5 4.52,3.11 4.02,5.82 -22.96,125.07 -59.25,296.58 -117.83,501.42 -0.76,2.65 -3.53,4.19 -6.18,3.43 -2.66,-0.76 -4.19,-3.53 -3.43,-6.18" /><path
       id="path72"
       style="fill:#f0ad0e;fill-opacity:1;fill-rule:nonzero;stroke:none"
       d="m 1224.92,1865.9 c -14.18,2.48 -28.22,5.04 -42.1,7.66 l 66.67,132.53 -24.57,-140.19" /><path
       id="path76"
       style="fill:#2e7ebc;fill-opacity:1;fill-rule:nonzero;stroke:none"
       d="m 1196.55,1703.95 h -158.22 l 261.4,588.87 c -34.7952,-196.2236 -68.797,-392.5782 -103.18,-588.87"
       sodipodi:nodetypes="cccc" /><path
       id="path78"
       style="fill:#4e52ad;fill-opacity:1;fill-rule:nonzero;stroke:none"
       d="m 1869.47,983.52 -141.2,40.01 308.16,1087.63 141.2,-40.01 -308.16,-1087.63" /><path
       id="path80"
       style="fill:#f79994;fill-opacity:1;fill-rule:nonzero;stroke:none"
       d="m 1589.56,1574.02 c 0,0 264.91,26.38 293.15,17.67 28.24,-8.71 124.9,-63.42 138.56,-79.04 13.66,-15.61 18.54,-30.24 16.59,-44.88 -1.95,-14.64 -21.47,-31.23 -21.47,-31.23 15.3,-23.82 15.82,-40.14 12.56,-51.17 -5.81,-19.71 -28.93,-40.29 -29.15,-40.55 1.71,-6.1 3.63,-14.85 4.15,-25.49 0.5,-10.11 1.5,-30.47 -8.55,-49.06 -14.92,-27.59 -45.63,-35.46 -52.35,-37.03 0,0 11.87,-22.1 -3.74,-40.64 -15.62,-18.54 -62.45,-41.96 -118.07,-34.16 -55.62,7.81 -200.04,79.04 -200.04,79.04 l -46.42,-14.53 14.78,351.07" /><path
       id="path82"
       style="fill:#eaf8fb;fill-opacity:0.5;fill-rule:nonzero;stroke:none"
       d="m 2313.17,2116.82 c -67.21,0 -131.86,10.87 -192.33,30.97 -54.76,66.94 -108.99,128.59 -161.65,185.11 l -37.24,236.64 c 9.83,0.72 19.77,2.16 29.8,4.43 189.27,42.81 220.82,335.83 222.33,351.73 1.93,20.36 5.28,55.73 2.47,97.58 76.78,17.87 130.32,75.24 132.1,135.15 1.87,63.09 -54.21,110.85 -94.01,130.7 -22.13,11.03 -40.19,13.92 -58.15,13.92 -9.87,0 -19.71,-0.87 -30.19,-1.75 -6.05,-0.5 -12.31,-1.01 -18.9,-1.34 64.27,23.05 133.57,35.62 205.77,35.62 329.48,0 597.89,-261.49 609.02,-588.27 h -83.74 c -5.95,0 -11.72,-0.81 -17.19,-2.33 -27.1,-7.51 -47,-32.36 -47,-61.86 v 0 0 -355.35 c -111.74,-129.19 -276.87,-210.95 -461.09,-210.95" /><path
       id="path84"
       style="fill:#e4f4f7;fill-opacity:1;fill-rule:nonzero;stroke:none"
       d="m 1959.19,2332.9 c -26.97,28.95 -53.53,56.56 -79.54,82.85 -10.47,18.06 -21.58,36.49 -33.38,55.19 0.4,1.89 0.76,3.81 1.09,5.73 l 16.52,96.36 0.04,0.27 c 13.98,-2.77 28.35,-4.31 43,-4.31 4.98,0 9.98,0.18 15.03,0.55 l 37.24,-236.64" /><path
       id="path86"
       style="fill:#328acd;fill-opacity:1;fill-rule:nonzero;stroke:none"
       d="m 2120.84,2147.79 c -51.02,16.96 -99.04,40.47 -143.07,69.55 -24,58.04 -55.8,125.38 -98.12,198.41 26.01,-26.29 52.57,-53.9 79.54,-82.85 52.66,-56.52 106.89,-118.17 161.65,-185.11" /><path
       id="path88"
       style="fill:#328acd;fill-opacity:1;fill-rule:nonzero;stroke:none"
       d="m 1977.77,2217.34 c -68.97,45.56 -128.16,104.79 -173.67,173.79 20.68,21.42 35.71,48.71 42.17,79.81 11.8,-18.7 22.91,-37.13 33.38,-55.19 42.32,-73.03 74.12,-140.37 98.12,-198.41" /><path
       id="path90"
       style="fill:#e4c6c8;fill-opacity:1;fill-rule:nonzero;stroke:none"
       d="m 1804.1,2391.13 c -30.7,46.54 -55.18,97.54 -72.27,151.81 0.72,-0.83 1.45,-1.65 2.18,-2.47 41.04,-45.72 89.57,-63.03 112.25,-69.5 l 17.62,102.06 -16.52,-96.36 c -0.33,-1.92 -0.69,-3.84 -1.09,-5.73 -6.46,-31.1 -21.49,-58.39 -42.17,-79.81" /><path
       id="path92"
       style="fill:#e7a6aa;fill-opacity:1;fill-rule:nonzero;stroke:none"
       d="m 1846.26,2470.97 c -22.68,6.47 -71.21,23.78 -112.25,69.5 -0.73,0.82 -1.46,1.64 -2.18,2.47 -11.38,36.11 -19.47,73.63 -23.95,112.3 38.05,-32.29 93.1,-69.49 156.04,-81.94 l -0.04,-0.27 -17.62,-102.06" /><path
       id="path94"
       style="fill:#e4c6c8;fill-opacity:1;fill-rule:nonzero;stroke:none"
       d="m 1906.92,2568.99 c -14.65,0 -29.02,1.54 -43,4.31 -62.94,12.45 -117.99,49.65 -156.04,81.94 -2.7,23.27 -4.09,46.96 -4.09,70.96 0,88.12 18.72,171.89 52.37,247.52 62.29,18.49 105.73,42.55 136.69,65.09 0,0 3.71,2.7 110.83,84.07 17.26,-18.61 44.29,-43.55 82.55,-64.96 34.68,-19.42 66.8,-29.32 90.31,-34.64 v 0 c 2.82,-41.85 -0.53,-77.22 -2.46,-97.58 -1.51,-15.9 -33.06,-308.92 -222.33,-351.73 -10.03,-2.27 -19.97,-3.71 -29.8,-4.43 -5.05,-0.37 -10.05,-0.55 -15.03,-0.55 m 40.92,222.18 c -28.08,0 -58.6,-17.13 -75.2,-48.92 l 140.88,-16.05 c -0.38,2.88 -6.55,44.49 -39.99,59.61 -7.95,3.6 -16.7,5.36 -25.69,5.36 m 189.53,79.72 c -24.91,0 -45.69,-19.57 -46.91,-44.73 -1.26,-25.93 18.73,-47.97 44.67,-49.23 0.21,-0.01 0.42,-0.02 0.63,-0.02 1.35,0 2.66,0.19 4,0.26 11.07,31.03 18.75,60.76 24,85.46 -6.92,4.71 -15.09,7.77 -24.06,8.2 -0.78,0.04 -1.55,0.06 -2.33,0.06 m -311.78,32.49 c -24.91,0 -45.69,-19.57 -46.91,-44.72 -1.26,-25.93 18.74,-47.98 44.67,-49.24 0.77,-0.04 1.55,-0.06 2.32,-0.06 24.92,0 45.69,19.57 46.92,44.73 1.26,25.93 -18.74,47.97 -44.67,49.24 -0.78,0.04 -1.56,0.05 -2.33,0.05 m 180.91,25.14 c -1.28,0 -2.58,-0.29 -3.81,-0.9 -4.21,-2.11 -5.91,-7.23 -3.81,-11.44 l 23.84,-47.67 c 0.6,-1.2 0.86,-2.41 0.87,-3.63 -0.02,-3.24 -1.93,-6.33 -5.18,-7.59 l -31.74,-12.43 c -4.38,-1.72 -6.54,-6.67 -4.83,-11.05 1.32,-3.36 4.54,-5.42 7.94,-5.42 1.04,0 2.09,0.19 3.11,0.59 l 31.74,12.44 c 10,3.93 16.02,13.47 16.01,23.46 0,3.78 -0.87,7.66 -2.67,11.26 l -23.84,47.67 c -1.49,2.98 -4.5,4.71 -7.63,4.71 m 102.63,54.72 c -18.47,0 -34.07,-17.66 -35.17,-40.19 -1.13,-23.11 13.43,-42.6 32.51,-43.53 0.47,-0.02 0.94,-0.03 1.41,-0.03 18.47,-0.01 34.07,17.65 35.17,40.19 1.13,23.11 -13.43,42.6 -32.51,43.53 -0.47,0.02 -0.94,0.03 -1.41,0.03 m -225.98,3.85 30.78,-34.93 -44.12,-15.54 c -4.44,-1.56 -6.77,-6.43 -5.21,-10.87 1.24,-3.5 4.53,-5.7 8.04,-5.7 0.94,0 1.9,0.16 2.84,0.49 l 56.03,19.74 c 2.66,0.93 4.71,3.16 5.42,5.89 0.71,2.73 0.01,5.67 -1.85,7.78 l -39.13,44.41 c -1.69,1.91 -4.04,2.89 -6.4,2.89 -2.01,0 -4.02,-0.7 -5.64,-2.13 -3.53,-3.11 -3.87,-8.5 -0.76,-12.03 v 0" /><path
       id="path96"
       style="fill:#74878c;fill-opacity:1;fill-rule:nonzero;stroke:none"
       d="m 2107.88,2899.49 c -0.47,0 -0.94,0.01 -1.41,0.03 -19.08,0.93 -33.64,20.42 -32.51,43.53 1.1,22.53 16.7,40.19 35.17,40.19 0.47,0 0.94,-0.01 1.41,-0.03 19.08,-0.93 33.64,-20.42 32.51,-43.53 -1.1,-22.54 -16.7,-40.2 -35.17,-40.19" /><path
       id="path98"
       style="fill:#74878c;fill-opacity:1;fill-rule:nonzero;stroke:none"
       d="m 1989.78,2828.39 c -3.4,0 -6.62,2.06 -7.94,5.42 -1.71,4.38 0.45,9.33 4.83,11.05 l 31.74,12.43 c 3.25,1.26 5.16,4.35 5.18,7.59 -0.01,1.22 -0.27,2.43 -0.87,3.63 l -23.84,47.67 c -2.1,4.21 -0.4,9.33 3.81,11.44 1.23,0.61 2.53,0.9 3.81,0.9 3.13,0 6.14,-1.73 7.63,-4.71 l 23.84,-47.67 c 1.8,-3.6 2.67,-7.48 2.67,-11.26 0.01,-9.99 -6.01,-19.53 -16.01,-23.46 l -31.74,-12.44 c -1.02,-0.4 -2.07,-0.59 -3.11,-0.59" /><path
       id="path100"
       style="fill:#e7a6aa;fill-opacity:1;fill-rule:nonzero;stroke:none"
       d="m 1825.67,2809.36 c -0.77,0 -1.55,0.02 -2.32,0.06 -25.93,1.26 -45.93,23.31 -44.67,49.24 1.22,25.15 22,44.72 46.91,44.72 0.77,0 1.55,-0.01 2.33,-0.05 25.93,-1.27 45.93,-23.31 44.67,-49.24 -1.23,-25.16 -22,-44.73 -46.92,-44.73" /><path
       id="path102"
       style="fill:#e7a6aa;fill-opacity:1;fill-rule:nonzero;stroke:none"
       d="m 2135.76,2776.91 c -0.21,0 -0.42,0.01 -0.63,0.02 -25.94,1.26 -45.93,23.3 -44.67,49.23 1.22,25.16 22,44.73 46.91,44.73 0.78,0 1.55,-0.02 2.33,-0.06 8.97,-0.43 17.14,-3.49 24.06,-8.2 -5.25,-24.7 -12.93,-54.43 -24,-85.46 -1.34,-0.07 -2.65,-0.26 -4,-0.26" /><path
       id="path104"
       style="fill:#74878c;fill-opacity:1;fill-rule:nonzero;stroke:none"
       d="m 1872.64,2920.05 c -3.51,0 -6.8,2.2 -8.04,5.7 -1.56,4.44 0.77,9.31 5.21,10.87 l 44.12,15.54 -30.78,34.93 v 0 c -3.11,3.53 -2.77,8.92 0.76,12.03 1.62,1.43 3.63,2.13 5.64,2.13 2.36,0 4.71,-0.98 6.4,-2.89 l 39.13,-44.41 c 1.86,-2.11 2.56,-5.05 1.85,-7.78 -0.71,-2.73 -2.76,-4.96 -5.42,-5.89 l -56.03,-19.74 c -0.94,-0.33 -1.9,-0.49 -2.84,-0.49" /><path
       id="path106"
       style="fill:#eaf8fb;fill-opacity:1;fill-rule:nonzero;stroke:none"
       d="m 2013.52,2726.2 -140.88,16.05 c 16.6,31.79 47.12,48.92 75.2,48.92 8.99,0 17.74,-1.76 25.69,-5.36 33.44,-15.12 39.61,-56.73 39.99,-59.61" /><path
       id="path108"
       style="fill:#74878c;fill-opacity:1;fill-rule:nonzero;stroke:none"
       d="m 1756.16,2973.72 c 67.31,151.25 194.37,269.98 351.24,326.24 6.59,0.33 12.85,0.84 18.9,1.34 10.48,0.88 20.32,1.75 30.19,1.75 17.96,0 36.02,-2.89 58.15,-13.92 39.8,-19.85 95.88,-67.61 94.01,-130.7 -1.78,-59.91 -55.32,-117.28 -132.11,-135.15 v 0 c -23.51,5.32 -55.63,15.22 -90.31,34.64 -38.26,21.41 -65.29,46.35 -82.55,64.96 -107.12,-81.37 -110.83,-84.07 -110.83,-84.07 -30.96,-22.54 -74.4,-46.6 -136.69,-65.09" /><path
       id="path110"
       style="fill:#4e52ad;fill-opacity:1;fill-rule:nonzero;stroke:none"
       d="m 2313.17,2116.82 c -336.55,0 -609.38,272.83 -609.38,609.38 0,336.55 272.83,609.38 609.38,609.38 336.55,0 609.38,-272.83 609.38,-609.38 0,-336.55 -272.83,-609.38 -609.38,-609.38 m 0,1337.68 c -402.23,0 -728.3,-326.07 -728.3,-728.3 0,-402.23 326.07,-728.3 728.3,-728.3 402.23,0 728.3,326.07 728.3,728.3 0,402.23 -326.07,728.3 -728.3,728.3" /><path
       id="path112"
       style="fill:#232221;fill-opacity:1;fill-rule:nonzero;stroke:none"
       d="m 2017.77,1443.92 c -0.01,0 -1.48,0.27 -4.22,0.81 -9.58,1.88 -34.33,6.91 -61.95,13.95 -27.6,7.02 -58.19,16.13 -78.9,25.78 -24.49,11.4 -41.24,20.2 -51.81,26.11 -5.28,2.96 -9.02,5.2 -11.41,6.68 -1.2,0.74 -2.06,1.29 -2.6,1.65 l -0.59,0.39 -0.15,0.09 c -3.41,2.35 -8.08,1.49 -10.42,-1.93 -2.35,-3.41 -1.49,-8.08 1.93,-10.43 0.42,-0.28 19.12,-13.08 68.73,-36.16 25.61,-11.89 62.51,-22.16 93.3,-29.64 30.76,-7.47 55.25,-12.03 55.34,-12.05 4.07,-0.76 7.99,1.93 8.75,6 0.76,4.07 -1.93,7.99 -6,8.75" /><path
       id="path114"
       style="fill:#232221;fill-opacity:1;fill-rule:nonzero;stroke:none"
       d="m 2000.55,1352.28 c 0,0 -1.7,0.17 -4.85,0.53 -11,1.25 -39.3,4.75 -69.68,10.77 -30.31,5.96 -62.93,14.72 -81.4,25.42 -22.66,13.03 -37.94,23.73 -47.48,31.11 -4.78,3.69 -8.12,6.54 -10.23,8.44 -1.05,0.95 -1.8,1.66 -2.27,2.11 l -0.5,0.49 -0.09,0.1 -0.3,-0.29 0.3,0.28 v 0.01 l -0.3,-0.29 0.3,0.28 c -2.86,3 -7.61,3.12 -10.6,0.26 -3,-2.86 -3.12,-7.61 -0.26,-10.61 0.55,-0.57 17.54,-18.2 63.95,-44.89 12.4,-7.11 28.5,-12.85 45.9,-17.73 52.07,-14.55 115.8,-20.88 116.02,-20.91 4.12,-0.42 7.79,2.59 8.21,6.71 0.41,4.12 -2.6,7.8 -6.72,8.21" /><path
       id="path116"
       style="fill:#232221;fill-opacity:1;fill-rule:nonzero;stroke:none"
       d="m 1962.81,1247.64 c -47.45,1.87 -82.89,12.43 -107.62,22.57 -20.64,8.45 -44.26,20.96 -62.6,31.32 -9.18,5.18 -17.06,9.82 -22.62,13.17 -2.79,1.67 -5,3.02 -6.51,3.95 -1.51,0.92 -2.29,1.42 -2.3,1.42 -3.51,2.2 -8.14,1.13 -10.33,-2.38 -2.2,-3.51 -1.14,-8.14 2.37,-10.33 0.19,-0.1 53.05,-33.27 96.3,-51.03 26.02,-10.68 63.34,-21.75 112.72,-23.68 4.14,-0.16 7.63,3.06 7.79,7.2 0.16,4.14 -3.06,7.63 -7.2,7.79" /><path
       id="path118"
       style="fill:#f35b5f;fill-opacity:1;fill-rule:nonzero;stroke:none"
       d="m 1589.56,1574.02 -14.78,-351.07 46.42,14.53 -14.88,338.17 -16.76,-1.63" /><path
       id="path120"
       style="fill:#232221;fill-opacity:1;fill-rule:nonzero;stroke:none"
       d="m 1276.83,2258.2 c 0,-0.01 -59.08,-129.89 -118.16,-263.25 -29.55,-66.69 -59.09,-134.23 -81.27,-186.88 -11.08,-26.32 -20.33,-48.91 -26.82,-65.85 -3.25,-8.48 -5.81,-15.53 -7.59,-20.99 -0.89,-2.74 -1.58,-5.07 -2.07,-7.04 -0.48,-2 -0.81,-3.51 -0.83,-5.21 0.03,-0.79 0,-1.67 0.67,-3.1 0.85,-1.61 1.86,-2.22 2.62,-2.69 1.47,-0.81 2.75,-1.13 4.36,-1.5 5.45,-1.16 14.6,-1.83 27.43,-2.31 12.77,-0.46 29.01,-0.67 47.83,-0.67 152.91,0 476.92,13.57 476.96,13.57 l -0.21,5 -5,0.21 -25.62,-608.41 4.99,-0.21 0.32,4.99 c -0.02,0 -6.67,0.42 -18.68,1.24 -42.04,2.88 -149.51,10.63 -264.92,22.26 -115.37,11.61 -238.82,27.14 -312.274,45.38 -84.425,20.95 -174.961,47.86 -244.363,69.54 -34.703,10.84 -64.125,20.37 -84.863,27.18 -20.742,6.82 -32.758,10.91 -32.793,10.92 -2.613,0.89 -5.453,-0.51 -6.344,-3.12 -0.89,-2.61 0.508,-5.46 3.121,-6.35 0.071,-0.02 193.371,-65.82 362.832,-107.88 85.204,-21.13 234.384,-38.35 362.554,-50.37 128.13,-12.02 235.07,-18.78 235.1,-18.78 1.33,-0.08 2.67,0.38 3.66,1.28 0.99,0.89 1.59,2.17 1.65,3.5 l 25.62,608.41 c 0.06,1.39 -0.47,2.76 -1.46,3.74 -0.98,0.99 -2.35,1.52 -3.74,1.47 -0.06,-0.01 -20.25,-0.85 -53.01,-2.12 -98.26,-3.82 -309.2,-11.45 -423.53,-11.45 -22.85,0 -41.85,0.31 -55.21,1 -6.67,0.35 -11.95,0.8 -15.45,1.32 -1.74,0.25 -3.05,0.54 -3.69,0.75 l -0.33,0.11 -0.02,0.01 -1.59,-3.06 3,1.5 c -0.75,1.35 -1.36,1.49 -1.41,1.56 l -1.59,-3.06 3,1.5 -2.73,-1.36 h 3.11 c -0.03,0.01 0.09,0.31 -0.38,1.36 l -2.73,-1.36 h 3.11 c -0.02,0.02 0.12,1.21 0.53,2.79 1.57,6.38 6.54,20.13 13.9,38.67 25.79,65.1 81.18,191.09 130.07,300.69 24.46,54.82 47.29,105.55 64.02,142.58 8.36,18.52 15.19,33.6 19.93,44.06 4.75,10.46 7.39,16.28 7.4,16.29 1.14,2.52 0.03,5.48 -2.48,6.62 -2.52,1.15 -5.48,0.04 -6.63,-2.48" /><path
       id="path122"
       style="fill:#ffffff;fill-opacity:1;fill-rule:nonzero;stroke:none"
       d="m 2346.42,3157.67 c -3.77,-8.4 -4.35,-18.23 -0.86,-27.53 7.02,-18.72 27.88,-28.2 46.6,-21.18 34.01,12.76 70.84,18.14 106.52,15.56 39.87,-2.89 70.4,-14.87 85.05,-21.76 17.38,-8.17 53.54,-25.17 80.5,-62.27 37.53,-51.67 34.4,-112.13 31.31,-135.73 -2.6,-19.82 11.37,-37.99 31.19,-40.59 19.82,-2.59 38.01,11.4 40.59,31.19 5.23,40 6.41,117.56 -44.52,187.68 -37.89,52.16 -87.21,75.34 -108.27,85.24 -23.45,11.02 -61.67,24.89 -110.62,28.44 -46.02,3.33 -93.46,-3.57 -137.18,-19.98 -9.42,-3.53 -16.5,-10.57 -20.31,-19.07" /><path
       id="path124"
       style="fill:#ffffff;fill-opacity:1;fill-rule:nonzero;stroke:none"
       d="M 1075.52,2314.14 C 986.875,2235.33 873.035,2117.65 769.125,1954.57 662.43,1787.14 603.344,1630.14 569.582,1514.61 c -0.773,-2.66 0.746,-5.43 3.395,-6.21 2.652,-0.77 5.429,0.75 6.203,3.4 33.562,114.86 92.308,270.94 198.379,437.4 103.304,162.12 216.476,279.12 304.601,357.46 2.06,1.84 2.25,5 0.42,7.06 -1.84,2.07 -5,2.25 -7.06,0.42" /><path
       id="path126"
       style="fill:#878787;fill-opacity:1;fill-rule:nonzero;stroke:none"
       d="M 2790.94,983.52 H 1708.65 c -42.22,0 -76.44,34.22 -76.44,76.43 v 48.92 H 2790.94 V 983.52" /><path
       id="path128"
       style="fill:#8c8c8c;fill-opacity:1;fill-rule:nonzero;stroke:none"
       d="M 3598.34,983.52 H 2417.57 c -46.37,0 -79.36,39.64 -73.7,88.53 l 89.24,769.95 c 5.67,48.89 47.85,88.53 94.22,88.53 H 3708.1 c 46.37,0 79.37,-39.64 73.7,-88.53 l -89.24,-769.95 c -5.66,-48.89 -47.85,-88.53 -94.22,-88.53" /><path
       id="path130"
       style="fill:#9c9c9c;fill-opacity:1;fill-rule:nonzero;stroke:none"
       d="M 3712.34,983.52 H 2531.57 c -46.37,0 -79.36,39.64 -73.7,88.53 l 89.24,769.95 c 5.67,48.89 47.85,88.53 94.22,88.53 H 3822.1 c 46.37,0 79.37,-39.64 73.7,-88.53 l -89.24,-769.95 c -5.66,-48.89 -47.85,-88.53 -94.22,-88.53" /><path
       id="path140"
       style="fill:#232221;fill-opacity:1;fill-rule:nonzero;stroke:none"
       d="m 2021.11,3356 c -59.97,-33.84 -211.31,-129.67 -310.66,-323.05 -71.24,-138.69 -86.1,-269.89 -86.1,-358.1 0,-34.45 2.27,-62.35 4.33,-81.59 0.29,-2.74 2.76,-4.73 5.5,-4.43 2.75,0.29 4.74,2.75 4.44,5.5 -2.03,18.98 -4.27,46.51 -4.27,80.52 0,87.11 14.68,216.64 85,353.53 98.03,190.86 247.52,285.54 306.68,318.91 2.4,1.36 3.25,4.41 1.89,6.81 -1.35,2.41 -4.4,3.26 -6.81,1.9" /><path
       id="path142"
       style="fill:#232221;fill-opacity:1;fill-rule:nonzero;stroke:none"
       d="m 2101.34,1323.59 -23.22,163.73 c -0.39,2.73 -2.92,4.63 -5.65,4.25 -2.74,-0.39 -4.64,-2.92 -4.25,-5.66 l 23.21,-163.73 c 0.39,-2.73 2.92,-4.63 5.66,-4.25 2.73,0.39 4.63,2.92 4.25,5.66" /><path
       id="path144"
       style="fill:#f8f8f8;fill-opacity:1;fill-rule:nonzero;stroke:#222120;stroke-width:7.50000019;stroke-dasharray:none;stroke-opacity:1;paint-order:stroke markers fill"
       d="M 4385.49,1486.32 H 2838.45 c -35.45,0 -64.19,28.74 -64.19,64.2 v 1132.6 c 0,35.45 28.74,64.19 64.19,64.19 h 1547.04 c 35.45,0 64.19,-28.74 64.19,-64.19 v -1132.6 c 0,-35.46 -28.74,-64.2 -64.19,-64.2" /><path
       id="path146"
       style="fill:#ececec;fill-opacity:1;fill-rule:nonzero;stroke:none"
       d="m 4449.68,2601.42 v 0 81.7 c 0,29.5 -19.9,54.35 -47,61.86 27.1,-7.51 47,-32.36 47,-61.86 v -81.7" /><path
       id="path148"
       style="fill:#e1e8ea;fill-opacity:1;fill-rule:nonzero;stroke:none"
       d="m 2774.26,2683.12 v 0 c 0,29.5 19.9,54.35 47,61.86 -27.1,-7.51 -47,-32.36 -47,-61.86" /><path
       id="path150"
       style="fill:#e7e7e6;fill-opacity:1;fill-rule:nonzero;stroke:none"
       d="M 4449.68,2601.42 H 2774.26 v 81.7 c 0,29.5 19.9,54.35 47,61.86 5.47,1.52 11.24,2.33 17.19,2.33 h 1547.04 c 5.95,0 11.72,-0.81 17.19,-2.33 27.1,-7.51 47,-32.36 47,-61.86 v -81.7" /><path
       id="path152"
       style="fill:#f8f8f8;fill-opacity:1;fill-rule:nonzero;stroke:none"
       d="m 2861.4,2666.72 c 0,-10.97 -8.9,-19.87 -19.88,-19.87 -10.97,0 -19.87,8.9 -19.87,19.87 0,10.98 8.9,19.88 19.87,19.88 10.98,0 19.88,-8.9 19.88,-19.88" /><path
       id="path154"
       style="fill:#f8f8f8;fill-opacity:1;fill-rule:nonzero;stroke:none"
       d="m 2924.22,2666.72 c 0,-10.97 -8.9,-19.87 -19.88,-19.87 -10.97,0 -19.87,8.9 -19.87,19.87 0,10.98 8.9,19.88 19.87,19.88 10.98,0 19.88,-8.9 19.88,-19.88" /><path
       id="path156"
       style="fill:#f8f8f8;fill-opacity:1;fill-rule:nonzero;stroke:none"
       d="m 2988.42,2666.72 c 0,-10.97 -8.9,-19.87 -19.87,-19.87 -10.98,0 -19.88,8.9 -19.88,19.87 0,10.98 8.9,19.88 19.88,19.88 10.97,0 19.87,-8.9 19.87,-19.88" /><path
       id="path158"
       style="fill:#e7e7e6;fill-opacity:1;fill-rule:nonzero;stroke:none"
       d="m 4028.85,1708.56 h -758.93 c -26.82,0 -48.56,21.74 -48.56,48.56 v 544.68 81.76 c 0,26.82 21.74,48.56 48.56,48.56 h 474.6 c 26.82,0 48.56,-21.74 48.56,-48.56 v -81.76 h 235.77 c 26.82,0 48.56,-21.74 48.56,-48.55 v -496.13 c 0,-26.82 -21.74,-48.56 -48.56,-48.56" /><path
       id="path160"
       style="fill:#d8d7d5;fill-opacity:1;fill-rule:nonzero;stroke:none"
       d="m 3745,2187.6 -95.62,-95.61 -95.61,95.61 -57.7,-57.7 95.62,-95.61 -95.62,-95.62 57.7,-57.7 95.61,95.62 95.62,-95.62 57.7,57.7 -95.62,95.62 95.62,95.61 -57.7,57.7" /><path
       id="path162"
       style="fill:#232221;fill-opacity:1;fill-rule:nonzero;stroke:none"
       d="m 2838.45,2745.94 h 1547.04 c 17.35,0 33.04,-7.03 44.42,-18.4 11.37,-11.37 18.4,-27.07 18.4,-44.42 v -1132.6 l 1.37,-1.37 1.37,1.37 v 1132.6 c 0,36.21 -29.36,65.56 -65.56,65.56 H 2838.45 l -1.37,-1.37 1.37,-1.37" /><path
       id="path164"
       style="fill:#0a5399;fill-opacity:1;fill-rule:nonzero;stroke:none"
       d="M 4574.99,770.32 H 426.855 c -58.875,0 -106.601,47.731 -106.601,106.602 v 0 c 0,58.867 47.726,106.598 106.601,106.598 H 4574.99 c 58.88,0 106.6,-47.731 106.6,-106.598 v 0 c 0,-58.871 -47.72,-106.602 -106.6,-106.602" /><path
       id="path166"
       style="fill:#ff9100;fill-opacity:1;fill-rule:nonzero;stroke:none"
       d="m 4334.05,2167.57 -24.49,195 200.94,25.23 24.49,-195 z m -30.13,288.04 c -7.36,58.54 -8.81,106.25 -4.37,143.09 4.45,36.85 17.69,71.77 39.77,104.79 12.64,19.73 27.57,37.22 44.82,52.5 17.22,15.25 32.87,31.08 46.96,47.47 14.05,16.37 25.42,34.19 34.1,53.43 8.67,19.23 11.21,43.23 7.6,72.02 -6.11,48.61 -23.77,80.93 -53,96.92 -29.23,15.98 -62.21,21.67 -98.91,17.06 -52.62,-6.61 -86.99,-25.81 -103.15,-57.56 -16.19,-31.77 -23.63,-72.78 -22.36,-123.01 l -192.01,-24.12 c -6.11,48.62 -3.73,93.78 7.17,135.47 10.88,41.68 29.23,78.26 55.02,109.73 25.77,31.45 58.32,57.22 97.65,77.28 39.29,20.06 83.77,33.2 133.4,39.44 107.17,13.46 194.5,2.24 262.02,-33.63 67.49,-35.89 107.43,-102.93 119.76,-201.18 3.99,-31.77 4.25,-59.95 0.8,-84.57 -3.47,-24.63 -10.44,-47.43 -20.9,-68.4 -10.48,-20.97 -24.08,-41.08 -40.81,-60.31 -16.74,-19.25 -35.89,-39.29 -57.46,-60.14 -19.72,-19.63 -35.37,-37.47 -46.96,-53.52 -11.59,-16.08 -19.88,-32.51 -24.81,-49.24 -4.96,-16.75 -7.33,-33.95 -7.13,-51.54 0.18,-17.63 1.67,-37.36 4.41,-59.18 l -181.61,-22.8" /><path
       id="path168"
       style="fill:#f8f8f8;fill-opacity:1;fill-rule:nonzero;stroke:none"
       d="m 3985,3774.51 c 0,-284.02 -230.25,-514.26 -514.26,-514.26 -284.02,0 -514.27,230.24 -514.27,514.26 0,284.02 230.25,514.26 514.27,514.26 284.01,0 514.26,-230.24 514.26,-514.26" /><path
       id="path170"
       style="fill:#e7e7e6;fill-opacity:1;fill-rule:nonzero;stroke:none"
       d="m 3470.74,3357.18 c -230.49,0 -417.33,186.85 -417.33,417.33 0,230.48 186.84,417.33 417.33,417.33 230.48,0 417.32,-186.85 417.32,-417.33 0,-230.48 -186.84,-417.33 -417.32,-417.33" /><path
       id="path172"
       style="fill:#d8d7d5;fill-opacity:1;fill-rule:nonzero;stroke:none"
       d="m 3484.49,3728.65 h -27.51 v 339.57 h 27.51 v -339.57" /><path
       id="path174"
       style="fill:#d8d7d5;fill-opacity:1;fill-rule:nonzero;stroke:none"
       d="m 3661.27,3643.93 -13.76,-23.83 -190.53,110.01 13.76,23.83 190.53,-110.01" /></g></svg>
