<?xml version="1.0" encoding="UTF-8" standalone="no"?>
<svg
   version="1.2"
   viewBox="0 0 821.70001 821.70001"
   width="821.70001"
   height="821.70001"
   id="svg1"
   sodipodi:docname="tecnologias-sass.svg"
   inkscape:version="1.3 (0e150ed6c4, 2023-07-21)"
   xmlns:inkscape="http://www.inkscape.org/namespaces/inkscape"
   xmlns:sodipodi="http://sodipodi.sourceforge.net/DTD/sodipodi-0.dtd"
   xmlns="http://www.w3.org/2000/svg"
   xmlns:svg="http://www.w3.org/2000/svg"
   xmlns:rdf="http://www.w3.org/1999/02/22-rdf-syntax-ns#"
   xmlns:cc="http://creativecommons.org/ns#"
   xmlns:dc="http://purl.org/dc/elements/1.1/">
  <defs
     id="defs1" />
  <sodipodi:namedview
     id="namedview1"
     pagecolor="#ffffff"
     bordercolor="#000000"
     borderopacity="0.25"
     inkscape:showpageshadow="2"
     inkscape:pageopacity="0.0"
     inkscape:pagecheckerboard="0"
     inkscape:deskcolor="#d1d1d1"
     inkscape:zoom="0.51325758"
     inkscape:cx="411.09963"
     inkscape:cy="410.12546"
     inkscape:window-width="2560"
     inkscape:window-height="1009"
     inkscape:window-x="-8"
     inkscape:window-y="-8"
     inkscape:window-maximized="1"
     inkscape:current-layer="svg1" />
  <title
     id="title1">Sass Logo - Seal (Color)-ai</title>
  <style
     id="style1">&#10;		.s0 { fill: #cc6699 } &#10;		.s1 { fill: #ffffff } &#10;	</style>
  <g
     id="Layer 1"
     transform="translate(-200,-382)">
    <g
       id="&lt;Group&gt;">
      <path
         id="&lt;Path&gt;"
         class="s0"
         d="m 610.9,382 c 226.9,0 410.8,184 410.8,410.9 0,226.9 -183.9,410.8 -410.8,410.8 C 384,1203.7 200,1019.8 200,792.9 200,566 384,382 610.9,382 Z" />
    </g>
    <g
       id="g1">
      <path
         id="&lt;Compound Path&gt;"
         fill-rule="evenodd"
         class="s1"
         d="m 744.8,746.3 c -71.2,27.6 -130.1,23.2 -154.3,15.3 -27.5,-9.1 -43.6,-27.2 -47.5,-37.4 -1.6,-4.1 -4.3,-10.8 0,-13.1 2.5,-1.4 3.6,-1.1 10.5,6.5 6.6,7.3 33,26.7 83.1,21.1 C 768.3,723.9 847.6,621.6 822.5,566.6 805,528 703.5,510.7 576.7,573.8 422,651 413.6,714.5 412.2,738.7 c -3.6,66.4 82,101.3 128.3,150.7 q 1.6,1.8 3.2,3.6 c 14,-5.3 33.4,-8.2 64.2,-8.7 74.9,-1.3 117.2,48.1 115.5,92.2 -1.4,34.8 -33.3,49.1 -39.2,50.1 -4.3,0.7 -6.7,0.8 -7.3,-2.5 -0.4,-2.4 1.2,-3.4 6.2,-6.6 5.1,-3.1 20.2,-13.5 22.9,-32.3 2.7,-18.8 -11.5,-63.8 -83.5,-72.2 -25.6,-3 -45.7,-1 -62.9,3.6 12.5,27.5 14.9,82.9 -13.9,125.8 -29.8,44.5 -85.2,71.5 -139.3,56.5 -17.4,-4.9 -43.8,-40.9 -21,-91.2 21.5,-47.6 113.5,-94.2 126.1,-100.4 v -0.2 c -42.6,-36.7 -146.4,-86.2 -161,-161.9 -4.1,-21.4 5.9,-72.8 69,-131.8 53.1,-49.6 126.8,-87.6 195,-111.8 114.5,-40.7 235.5,-16.7 254.1,56.3 18.3,71.7 -44,157.5 -123.8,188.4 z M 525.5,931.8 v 0.1 c 0,0 -42.8,20.2 -72.6,51.7 -27.7,29.3 -35.4,66 -20,75 14.3,8.3 47.7,-1.6 71.6,-27.6 7.8,-8.6 14.2,-17.8 18.9,-27.7 q 1.5,-3 2.7,-6 1.2,-3 2.3,-6.2 c 6.1,-18.6 6.8,-39.3 0.8,-61.4 q -1.9,1.1 -3.7,2.1 z" />
    </g>
  </g>
  <metadata
     id="metadata1">
    <rdf:RDF>
      <cc:Work
         rdf:about="">
        <dc:title>Sass Logo - Seal (Color)-ai</dc:title>
      </cc:Work>
    </rdf:RDF>
  </metadata>
</svg>
